{"title":"The.Woman.DVDRip.XviD.AC3-GBR","uid":7112735,"size":1204422808,"categoryP":"video","categoryS":"movies","magnet":"?xt=urn:btih:4eca8ccdce3ba22641df0fb5987241174ed0a4a7&amp;dn=The.Woman.DVDRip.XviD.AC3-GBR&amp;tr=udp%3A%2F%2Ftracker.openbittorrent.com%3A80&amp;tr=udp%3A%2F%2Fopen.demonii.com%3A1337&amp;tr=udp%3A%2F%2Ftracker.coppersurfer.tk%3A6969&amp;tr=udp%3A%2F%2Fexodus.desync.com%3A6969","seeders":0,"leechers":0,"uploader":"TvTeam","files":4,"time":1332116761,"description":". \n &lt;a href=&quot;\nhttp://www.torrenting.com&quot; rel=&quot;nofollow&quot; target=&quot;_NEW&quot;&gt;\nhttp://www.torrenting.com&lt;/a&gt;          :     Once &amp; For all ;)\n\n\n               www . Torrenting . Com \n\n(((((((((((((= Enjoy No RAR releases =))))))))))))))))))))\n\n\n...................................NFO:....................................\n\n.[IMG]http://i.imgur.com/JJzjV.jpg[/IMG]\n &lt;a href=&quot;\nhttp://www.imdb.com/title/tt1714208/&quot; rel=&quot;nofollow&quot; target=&quot;_NEW&quot;&gt;\nhttp://www.imdb.com/title/tt1714208/&lt;/a&gt;\n\nWhen a successful country lawyer captures and attempts to &quot;civilize&quot; the last remaining member of a violent clan that has roamed the Northeast coast for decades, he puts the lives of his family in jeopardy.\n\n\nGeneral\nComplete name                            : C:UsersrootDesktopThe.Woman.DVDRip.XviD.AC3-GBRThe.Woman.DVDRip.XviD.AC3-GBR.avi\nFormat                                   : AVI\nFormat/Info                              : Audio Video Interleave\nFile size                                : 1.12 GiB\nDuration                                 : 1h 43mn\nOverall bit rate                         : 1 556 Kbps\nWriting application                      : VirtualDubMod 1.5.10.2 (build 2540/release)\nWriting library                          : VirtualDubMod build 2540/release\n\nVideo\nID                                       : 0\nFormat                                   : MPEG-4 Visual\nFormat profile                           : Advanced Simple@L5\nFormat settings, BVOP                    : 1\nFormat settings, QPel                    : No\nFormat settings, GMC                     : No warppoints\nFormat settings, Matrix                  : Default (H.263)\nMuxing mode                              : Packed bitstream\nCodec ID                                 : XVID\nCodec ID/Hint                            : XviD\nDuration                                 : 1h 43mn\nBit rate                                 : 1 099 Kbps\nWidth                                    : 720 pixels\nHeight                                   : 400 pixels\nDisplay aspect ratio                     : 16:9\nFrame rate                               : 23.976 fps\nColor space                              : YUV\nChroma subsampling                       : 4:2:0\nBit depth                                : 8 bits\nScan type                                : Progressive\nCompression mode                         : Lossy\nBits/(Pixel*Frame)                       : 0.159\nStream size                              : 811 MiB (71%)\nWriting library                          : XviD 1.2.1 (UTC 2008-12-04)\n\nAudio\nID                                       : 1\nFormat                                   : AC-3\nFormat/Info                              : Audio Coding 3\nMode extension                           : CM (complete main)\nCodec ID                                 : 2000\nDuration                                 : 1h 43mn\nBit rate mode                            : Constant\nBit rate                                 : 448 Kbps\nChannel(s)                               : 6 channels\nChannel positions                        : Front: L C R, Side: L R, LFE\nSampling rate                            : 48.0 KHz\nBit depth                                : 16 bits\nCompression mode                         : Lossy\nStream size                              : 331 MiB (29%)\nAlignment                                : Split accross interleaves\nInterleave, duration                     : 42 ms (1.00 video frame)\nInterleave, preload duration             : 500 ms\n\nSource The Woman 2011 WS NTSC DVD9 \n\n[IMG]http://i.imgur.com/0RHXe.png[/IMG]\n[IMG]http://i.imgur.com/w8IjR.png[/IMG]\n[IMG]http://i.imgur.com/oeylf.png[/IMG]","torrent":{"xt":"urn:btih:4eca8ccdce3ba22641df0fb5987241174ed0a4a7","amp;dn":"The.Woman.DVDRip.XviD.AC3-GBR","amp;tr":["udp%3A%2F%2Ftracker.openbittorrent.com%3A80","udp%3A%2F%2Fopen.demonii.com%3A1337","udp%3A%2F%2Ftracker.coppersurfer.tk%3A6969","udp%3A%2F%2Fexodus.desync.com%3A6969"],"infoHash":"4eca8ccdce3ba22641df0fb5987241174ed0a4a7","infoHashBuffer":{"type":"Buffer","data":[78,202,140,205,206,59,162,38,65,223,15,181,152,114,65,23,78,208,164,167]},"announce":[],"urlList":[]}}